<!-- This Source Code Form is subject to the terms of the Mozilla Public
   - License, v. 2.0. If a copy of the MPL was not distributed with this
   - file, You can obtain one at http://mozilla.org/MPL/2.0/. -->
<svg width="16" height="16" viewBox="0 0 16 16" fill="none" xmlns="http://www.w3.org/2000/svg">
<path fill-rule="evenodd" clip-rule="evenodd" d="M4.8 0C5.24183 0 5.6 0.377023 5.6 0.842105V1.68418H10.4V0.842105C10.4 0.377023 10.7582 0 11.2 0C11.6418 0 12 0.377023 12 0.842105V1.68418H14.4C15.2837 1.68418 16 2.43823 16 3.3684V14.3158C16 15.2459 15.2837 16 14.4 16H1.6C0.716345 16 0 15.2459 0 14.3158V3.3684C0 2.43823 0.716344 1.68418 1.6 1.68418H4V0.842105C4 0.377023 4.35817 0 4.8 0ZM10.4 3.3684V4.21053C10.4 4.67561 10.7582 5.05263 11.2 5.05263C11.6418 5.05263 12 4.67561 12 4.21053V3.3684H14.4V5.89471H1.6V3.3684H4V4.21053C4 4.67561 4.35817 5.05263 4.8 5.05263C5.24183 5.05263 5.6 4.67561 5.6 4.21053V3.3684H10.4ZM1.6 7.57892V14.3158H14.4V7.57892H1.6Z" fill="#5B5B66"/>
</svg>
