<?xml version="1.0" encoding="UTF-8"?>
<svg width="16px" height="16px" viewBox="0 0 16 16" version="1.1" xmlns="http://www.w3.org/2000/svg" xmlns:xlink="http://www.w3.org/1999/xlink">
    <!-- Generator: Sketch 63.1 (92452) - https://sketch.com -->
    <title>Slice 1</title>
    <desc>Created with Sketch.</desc>
    <g id="Page-1" stroke="none" stroke-width="1" fill="none" fill-rule="evenodd">
        <g id="Vector-1" transform="translate(5.000000, 5.000000)" fill="context-fill" fill-rule="nonzero" fill-opacity="context-fill-opacity">
            <path d="M3,1.25 C3.965,1.25 4.75,2.035 4.75,3 C4.75,3.965 3.965,4.75 3,4.75 C2.035,4.75 1.25,3.965 1.25,3 C1.25,2.035 2.035,1.25 3,1.25 Z M3,0 C1.343,0 0,1.343 0,3 C0,4.657 1.343,6 3,6 C4.657,6 6,4.657 6,3 C6,1.343 4.657,0 3,0 Z" id="Shape"></path>
        </g>
        <g id="Vector" fill="context-fill" fill-rule="nonzero" fill-opacity="context-fill-opacity">
            <path d="M8.62812,16 L7.37812,16 C6.65712,16 6.01512,15.516 5.81612,14.823 L5.41012,13.409 C5.15212,13.282 4.89312,13.127 4.63012,12.943 L3.18212,13.303 C2.48812,13.477 1.74312,13.164 1.38312,12.538 L0.758124,11.456 C0.401124,10.837 0.494124,10.043 0.987124,9.525 L2.03212,8.424 C2.01412,8.285 2.00012,8.145 2.00012,8 C2.00012,7.847 2.01412,7.698 2.03212,7.55 L0.999124,6.479 C0.498124,5.961 0.400124,5.163 0.761124,4.539 L1.38612,3.456 C1.74312,2.837 2.47812,2.522 3.17312,2.688 L4.65012,3.043 C4.90812,2.864 5.16012,2.714 5.41112,2.591 L5.81712,1.177 C6.01512,0.484 6.65712,0 7.37812,0 L8.62812,0 C9.34212,0 9.98212,0.478 10.1871,1.163 L10.6121,2.599 C10.8541,2.72 11.0961,2.865 11.3511,3.043 L12.8291,2.688 C13.5201,2.522 14.2581,2.836 14.6151,3.456 L15.2401,4.539 C15.6001,5.164 15.5031,5.961 15.0031,6.48 L13.9681,7.55 C13.9861,7.698 14.0001,7.847 14.0001,8 C14.0001,8.145 13.9861,8.285 13.9691,8.424 L15.0141,9.525 C15.5061,10.044 15.6001,10.837 15.2431,11.456 L14.6181,12.539 C14.2581,13.164 13.5191,13.477 12.8181,13.303 L11.3711,12.943 C11.1121,13.125 10.8611,13.276 10.6121,13.401 L10.1871,14.838 C9.98212,15.522 9.34212,16 8.62812,16 Z M4.61212,11.659 L5.14012,11.768 C5.50212,12.043 5.83912,12.244 6.17212,12.383 L6.53112,12.787 L7.01612,14.478 C7.06212,14.638 7.21012,14.749 7.37612,14.749 L8.62612,14.749 C8.79412,14.749 8.93812,14.641 8.98512,14.48 L9.49112,12.773 L9.84612,12.375 C10.1701,12.238 10.4911,12.045 10.8561,11.767 L11.3851,11.658 L13.1161,12.089 C13.2781,12.129 13.4481,12.057 13.5321,11.913 L14.1571,10.83 C14.2391,10.687 14.2181,10.504 14.1041,10.384 L12.8541,9.067 L12.6871,8.562 L12.7091,8.388 C12.7301,8.261 12.7501,8.133 12.7501,8 C12.7501,7.851 12.7291,7.707 12.7081,7.563 L12.6871,7.413 L12.8581,6.9 L14.1021,5.611 C14.2171,5.491 14.2401,5.307 14.1571,5.163 L13.5321,4.081 C13.4481,3.938 13.2751,3.865 13.1201,3.904 L11.3621,4.326 L10.8411,4.218 C10.4791,3.946 10.1641,3.757 9.85012,3.624 L9.49412,3.226 L8.98812,1.519 C8.94012,1.358 8.79612,1.25 8.62812,1.25 L7.37812,1.25 C7.21212,1.25 7.06412,1.362 7.01812,1.521 L6.53212,3.212 L6.17212,3.617 C5.84712,3.752 5.51612,3.949 5.15912,4.217 L4.63812,4.326 L2.88112,3.904 C2.72112,3.868 2.55212,3.938 2.46812,4.081 L1.84312,5.164 C1.76012,5.308 1.78212,5.492 1.89812,5.611 L3.14212,6.9 L3.31312,7.414 L3.29212,7.564 C3.27112,7.707 3.25012,7.851 3.25012,8 C3.25012,8.133 3.27012,8.261 3.28712,8.389 L3.30912,8.563 L3.14212,9.068 L1.89212,10.385 C1.77912,10.505 1.75712,10.688 1.83912,10.831 L2.46412,11.914 C2.54812,12.059 2.72112,12.128 2.87912,12.09 L4.61212,11.659 Z" id="Shape"></path>
        </g>
    </g>
</svg>