<!-- This Source Code Form is subject to the terms of the Mozilla Public
   - License, v. 2.0. If a copy of the MPL was not distributed with this
   - file, You can obtain one at http://mozilla.org/MPL/2.0/. -->
<svg
   viewBox="0 0 31.999999 32"
   preserveAspectRatio="xMidYMid meet"
   version="1.1"
   width="32"
   height="32"
   xmlns="http://www.w3.org/2000/svg"
   xmlns:svg="http://www.w3.org/2000/svg">
  <path
     class="flag"
     d="m 3.1457057,30.068783 a 0.16,0.16 0 0 1 -0.16,0.13 H 0.69570573 a 0.17,0.17 0 0 1 -0.16000004,-0.22 L 8.5357057,1.9187829 a 0.16,0.16 0 0 1 0.16,-0.12 h 2.2900003 a 0.17,0.17 0 0 1 0.091,0.03 l 0.009,-0.03 h 8.66 a 1.39,1.39 0 0 1 1.29,1.42 1.84,1.84 0 0 1 -0.06,0.48 l -0.58,1.74 h 11.064 a 0.21,0.21 0 0 1 0.176,0.23 l -5.31,18.5100001 a 0.22,0.22 0 0 1 -0.2,0.16 h -13.07 a 1.43,1.43 0 0 1 -1.42,-1.08 1.24,1.24 0 0 1 0,-0.27 1.39,1.39 0 0 1 1.39,-1.4 h 1.8 a 1.4,1.4 0 0 0 1.34,-1.47 1.45,1.45 0 0 0 -1.48,-1.32 H 6.3577057 Z"
     id="path229" />
</svg>
