<!-- This Source Code Form is subject to the terms of the Mozilla Public
   - License, v. 2.0. If a copy of the MPL was not distributed with this
   - file, You can obtain one at http://mozilla.org/MPL/2.0/. -->
<svg width="16" height="16" viewBox="0 0 16 16" fill="none" xmlns="http://www.w3.org/2000/svg">
<path fill-rule="evenodd" clip-rule="evenodd" d="M15.0375 0H4.68363C4.42337 0.000314289 4.17701 0.10778 3.99799 0.293403C3.81943 0.47854 3.72133 0.726862 3.72104 0.982945V3.34138H5.12853V1.42911H14.5926V10.3042H12.9667V11.7333H15.0378C15.298 11.733 15.5441 11.6256 15.7232 11.4399C15.9017 11.2548 15.9998 11.0065 16.0001 10.7504V0.982754C15.9998 0.726672 15.9017 0.47854 15.7232 0.293403C15.5441 0.10778 15.2978 0.000314437 15.0375 0ZM3.90709 3.16356V3.1636H4.94248V1.25133H14.7786V1.25129H4.94243V3.16356H3.90709ZM13.0001 11.5555V11.5556H15.0375C15.2434 11.5553 15.4408 11.4704 15.5864 11.3195C15.7319 11.1685 15.8138 10.9639 15.8141 10.7504V0.982945C15.8138 0.769478 15.7319 0.564825 15.5864 0.41388C15.5801 0.407387 15.5737 0.401016 15.5673 0.394768C15.5737 0.401002 15.5801 0.407358 15.5863 0.413837C15.7319 0.564781 15.8138 0.769434 15.814 0.982901V10.7503C15.8138 10.9638 15.7319 11.1685 15.5863 11.3194C15.4407 11.4704 15.2434 11.5553 15.0375 11.5555H13.0001ZM11.9974 4.56785C11.8152 4.37747 11.5644 4.26699 11.2989 4.26667H0.980153C0.714664 4.26699 0.463889 4.37747 0.281683 4.56785C0.0999824 4.75771 0.000292423 5.01217 0 5.27443V14.9924C0.000292423 15.2547 0.0999824 15.509 0.281683 15.6988C0.463889 15.8892 0.714901 15.9997 0.98039 16H11.2989C11.5644 15.9997 11.8152 15.8892 11.9974 15.6988C12.1791 15.509 12.2788 15.2545 12.2791 14.9922V5.27425C12.2788 5.01198 12.1791 4.75771 11.9974 4.56785ZM0.865992 4.45323C0.903639 4.44747 0.941846 4.4445 0.980345 4.44446H11.2986C11.5092 4.44471 11.7111 4.53224 11.86 4.68784C12.009 4.84344 12.0927 5.0544 12.093 5.27445V14.9922C12.0927 15.2123 12.009 15.4233 11.86 15.5789C11.8268 15.6136 11.791 15.6449 11.753 15.6726C11.791 15.6449 11.8269 15.6136 11.8601 15.5788C12.009 15.4232 12.0928 15.2123 12.093 14.9922V5.27443C12.0928 5.05439 12.009 4.84342 11.8601 4.68783C11.7112 4.53223 11.5093 4.4447 11.2987 4.44444H0.98039C0.941876 4.44449 0.903653 4.44746 0.865992 4.45323ZM10.8479 5.72888V7.82871H1.43122V5.72888H10.8479ZM1.43122 14.5378V9.19031H10.8479V14.5378H1.43122ZM11.0339 8.00648V8.0065H1.24513V5.55111H1.24517V8.00648H11.0339ZM11.0339 14.7156H1.24517V9.01255H1.24513V14.7156H11.0339V14.7156Z" fill="#5B5B66"/>
</svg>
