<!-- This Source Code Form is subject to the terms of the Mozilla Public
   - License, v. 2.0. If a copy of the MPL was not distributed with this
   - file, You can obtain one at http://mozilla.org/MPL/2.0/. -->
<svg width="16" height="16" viewBox="0 0 16 16" fill="none" xmlns="http://www.w3.org/2000/svg">
<path fill-rule="evenodd" clip-rule="evenodd" d="M0 4.66274V13.6C0 14.9255 1.07452 16 2.4 16H13.6C14.9255 16 16 14.9255 16 13.6V4.60285C16 4.02 15.7879 3.45706 15.4033 3.01913L13.4686 0.816272C13.0129 0.297431 12.3559 0 11.6653 0H4.66274C4.02622 0 3.41577 0.252856 2.96569 0.702944L0.702944 2.96569C0.252856 3.41577 0 4.02622 0 4.66274ZM1.6 4.8H14.4V13.6C14.4 14.0418 14.0418 14.4 13.6 14.4H2.4C1.95817 14.4 1.6 14.0418 1.6 13.6V4.8ZM11.96 11.6H4.04C3.79699 11.6 3.6 11.7791 3.6 12C3.6 12.2209 3.79699 12.4 4.04 12.4H11.96C12.203 12.4 12.4 12.2209 12.4 12C12.4 11.7791 12.203 11.6 11.96 11.6ZM4.04 9.2H11.96C12.203 9.2 12.4 9.37909 12.4 9.6C12.4 9.82091 12.203 10 11.96 10H4.04C3.79699 10 3.6 9.82091 3.6 9.6C3.6 9.37909 3.79699 9.2 4.04 9.2ZM11.96 6.8H4.04C3.79699 6.8 3.6 6.97909 3.6 7.2C3.6 7.42091 3.79699 7.6 4.04 7.6H11.96C12.203 7.6 12.4 7.42091 12.4 7.2C12.4 6.97909 12.203 6.8 11.96 6.8ZM12.2665 1.87209L13.4327 3.2H2.73145L4.09713 1.83431C4.24716 1.68429 4.45064 1.6 4.66282 1.6H11.6654C11.8956 1.6 12.1146 1.69914 12.2665 1.87209Z" fill="#5B5B66"/>
</svg>
