<!-- This Source Code Form is subject to the terms of the Mozilla Public
   - License, v. 2.0. If a copy of the MPL was not distributed with this
   - file, You can obtain one at http://mozilla.org/MPL/2.0/. -->
<svg width="495" height="32" xmlns="http://www.w3.org/2000/svg">
  <defs>
    <linearGradient id="a" x1="33.5" y1=".5" x2="64.5" y2=".5" gradientUnits="userSpaceOnUse" gradientTransform="rotate(-24 49.001 16)">
      <stop stop-color="#9059FF"/>
      <stop offset=".52" stop-color="#FF4AA2"/>
      <stop offset="1" stop-color="#FFBD4F"/>
    </linearGradient>
    <linearGradient id="b" x1="66.5" y1=".5" x2="97.5" y2=".5" gradientUnits="userSpaceOnUse" gradientTransform="rotate(-24 82.001 16)">
      <stop stop-color="#9059FF"/>
      <stop offset=".52" stop-color="#FF4AA2"/>
      <stop offset="1" stop-color="#FFBD4F"/>
    </linearGradient>
    <linearGradient id="c" x1="99.5" y1=".5" x2="130.5" y2=".5" gradientUnits="userSpaceOnUse" gradientTransform="rotate(-24 115.001 16)">
      <stop stop-color="#9059FF"/>
      <stop offset=".52" stop-color="#FF4AA2"/>
      <stop offset="1" stop-color="#FFBD4F"/>
    </linearGradient>
    <linearGradient id="d" x1="132.5" y1=".5" x2="163.5" y2=".5" gradientUnits="userSpaceOnUse" gradientTransform="rotate(-24 148.001 16)">
      <stop stop-color="#9059FF"/>
      <stop offset=".52" stop-color="#FF4AA2"/>
      <stop offset="1" stop-color="#FFBD4F"/>
    </linearGradient>
    <linearGradient id="e" x1="165.5" y1=".5" x2="196.5" y2=".5" gradientUnits="userSpaceOnUse" gradientTransform="rotate(-24 181.001 16)">
      <stop stop-color="#9059FF"/>
      <stop offset=".52" stop-color="#FF4AA2"/>
      <stop offset="1" stop-color="#FFBD4F"/>
    </linearGradient>
    <linearGradient id="f" x1="198.5" y1=".5" x2="229.5" y2=".5" gradientUnits="userSpaceOnUse" gradientTransform="rotate(-24 214.001 16)">
      <stop stop-color="#9059FF"/>
      <stop offset=".52" stop-color="#FF4AA2"/>
      <stop offset="1" stop-color="#FFBD4F"/>
    </linearGradient>
    <linearGradient id="g" x1="231.5" y1=".5" x2="262.5" y2=".5" gradientUnits="userSpaceOnUse" gradientTransform="rotate(-24 247.001 16)">
      <stop stop-color="#9059FF"/>
      <stop offset=".52" stop-color="#FF4AA2"/>
      <stop offset="1" stop-color="#FFBD4F"/>
    </linearGradient>
    <linearGradient id="h" x1="264.5" y1=".5" x2="295.5" y2=".5" gradientUnits="userSpaceOnUse" gradientTransform="rotate(-24 280.001 16)">
      <stop stop-color="#9059FF"/>
      <stop offset=".52" stop-color="#FF4AA2"/>
      <stop offset="1" stop-color="#FFBD4F"/>
    </linearGradient>
    <linearGradient id="i" x1="297.5" y1=".5" x2="328.5" y2=".5" gradientUnits="userSpaceOnUse" gradientTransform="rotate(-24 313.001 16)">
      <stop stop-color="#9059FF"/>
      <stop offset=".52" stop-color="#FF4AA2"/>
      <stop offset="1" stop-color="#FFBD4F"/>
    </linearGradient>
    <linearGradient id="j" x1="330.5" y1=".5" x2="361.5" y2=".5" gradientUnits="userSpaceOnUse" gradientTransform="rotate(-24 346.001 16)">
      <stop stop-color="#9059FF"/>
      <stop offset=".52" stop-color="#FF4AA2"/>
      <stop offset="1" stop-color="#FFBD4F"/>
    </linearGradient>
    <linearGradient id="k" x1="363.5" y1=".5" x2="394.5" y2=".5" gradientUnits="userSpaceOnUse" gradientTransform="rotate(-24 379.001 16)">
      <stop stop-color="#9059FF"/>
      <stop offset=".52" stop-color="#FF4AA2"/>
      <stop offset="1" stop-color="#FFBD4F"/>
    </linearGradient>
    <linearGradient id="l" x1="396.5" y1=".5" x2="427.5" y2=".5" gradientUnits="userSpaceOnUse" gradientTransform="rotate(-24 412.001 16)">
      <stop stop-color="#9059FF"/>
      <stop offset=".52" stop-color="#FF4AA2"/>
      <stop offset="1" stop-color="#FFBD4F"/>
    </linearGradient>
    <linearGradient id="m" x1="429.5" y1=".5" x2="460.5" y2=".5" gradientUnits="userSpaceOnUse" gradientTransform="rotate(-24 445.001 16)">
      <stop stop-color="#9059FF"/>
      <stop offset=".52" stop-color="#FF4AA2"/>
      <stop offset="1" stop-color="#FFBD4F"/>
    </linearGradient>
    <linearGradient id="n" x1="462.5" y1=".5" x2="493.5" y2=".5" gradientUnits="userSpaceOnUse" gradientTransform="rotate(-24 478.001 16)">
      <stop stop-color="#9059FF"/>
      <stop offset=".52" stop-color="#FF4AA2"/>
      <stop offset="1" stop-color="#FFBD4F"/>
    </linearGradient>
    <linearGradient id="o" x1="495.5" y1=".5" x2="526.5" y2=".5" gradientUnits="userSpaceOnUse" gradientTransform="rotate(-24 511.001 16)">
      <stop stop-color="#9059FF"/>
      <stop offset=".52" stop-color="#FF4AA2"/>
      <stop offset="1" stop-color="#FFBD4F"/>
    </linearGradient>
  </defs>
  <path d="M44.365 30.266a15 15 16.8 0 1-3.926-1.949" fill="none" stroke="url(#a)" stroke-linecap="round" stroke-miterlimit="10"/>
  <path d="M77.365 30.266a15 15 33.6 0 1-7.12-4.949" fill="none" stroke="url(#b)" stroke-linecap="round" stroke-miterlimit="10"/>
  <path d="M110.365 30.266a15 15 50.4 0 1-9.312-8.744" fill="none" stroke="url(#c)" stroke-linecap="round" stroke-miterlimit="10"/>
  <path d="M143.365 30.266a15 15 67.2 0 1-10.312-13.01" fill="none" stroke="url(#d)" stroke-linecap="round" stroke-miterlimit="10"/>
  <path d="M176.365 30.266a15 15 84 0 1-10.037-17.385" fill="none" stroke="url(#e)" stroke-linecap="round" stroke-miterlimit="10"/>
  <path d="M209.365 30.266a15 15 100.8 0 1-8.51-21.492" fill="none" stroke="url(#f)" stroke-linecap="round" stroke-miterlimit="10"/>
  <path d="M242.365 30.266a15 15 117.6 0 1-5.86-24.983" fill="none" stroke="url(#g)" stroke-linecap="round" stroke-miterlimit="10"/>
  <path d="M275.365 30.266a15 15 134.4 0 1-2.314-27.56" fill="none" stroke="url(#h)" stroke-linecap="round" stroke-miterlimit="10"/>
  <path d="M308.365 30.266a15 15 151.2 0 1 1.824-29" fill="none" stroke="url(#i)" stroke-linecap="round" stroke-miterlimit="10"/>
  <path d="M341.365 30.266a15 15 168 0 1 6.203-29.184" fill="none" stroke="url(#j)" stroke-linecap="round" stroke-miterlimit="10"/>
  <path d="M374.365 30.266a15 15 184.8 1 1 10.448-28.094" fill="none" stroke="url(#k)" stroke-linecap="round" stroke-miterlimit="10"/>
  <path d="M407.365 30.266A15 15 201.6 1 1 421.56 4.442" fill="none" stroke="url(#l)" stroke-linecap="round" stroke-miterlimit="10"/>
  <path d="M440.365 30.266a15 15 218.4 1 1 17.129-22.567" fill="none" stroke="url(#m)" stroke-linecap="round" stroke-miterlimit="10"/>
  <path d="M473.365 30.266a15 15 235.2 1 1 18.995-18.601" fill="none" stroke="url(#n)" stroke-linecap="round" stroke-miterlimit="10"/>
  <path d="M506.365 30.266A15 15 252 1 1 526 16" fill="none" stroke="url(#o)" stroke-linecap="round" stroke-miterlimit="10"/>
</svg>
