<!-- This Source Code Form is subject to the terms of the Mozilla Public
   - License, v. 2.0. If a copy of the MPL was not distributed with this
   - file, You can obtain one at http://mozilla.org/MPL/2.0/. -->
<svg
   width="32"
   height="32"
   viewBox="0 0 32 32"
   fill="none"
   version="1.1"
   id="svg119"
   xmlns="http://www.w3.org/2000/svg"
   xmlns:svg="http://www.w3.org/2000/svg">
  <path
     fill-rule="evenodd"
     clip-rule="evenodd"
     d="m 16,3.6 a 2.4,2.4 0 1 0 0,4.8 2.4,2.4 0 0 0 0,-4.8 z M 10.4,6 a 5.6,5.6 0 1 1 2.936,4.927 l -2.41,2.41 c 0.183,0.335 0.331,0.691 0.442,1.063 h 9.264 a 5.6,5.6 0 1 1 2.704,6.527 l -2.41,2.41 a 5.6,5.6 0 1 1 -2.263,-2.263 l 2.41,-2.41 A 5.563,5.563 0 0 1 20.632,17.6 H 11.368 A 5.6,5.6 0 1 1 8.664,11.073 L 11.073,8.665 A 5.575,5.575 0 0 1 10.4,6 Z m 3.2,20 a 2.4,2.4 0 1 1 4.8,0 2.4,2.4 0 0 1 -4.8,0 z M 6,13.6 a 2.4,2.4 0 1 0 0,4.8 2.4,2.4 0 0 0 0,-4.8 z M 23.6,16 a 2.4,2.4 0 1 1 4.8,0 2.4,2.4 0 0 1 -4.8,0 z"
     fill="#000000"
     id="path117" />
</svg>
