<svg width="16" height="16" viewBox="0 0 16 16" fill="none" xmlns="http://www.w3.org/2000/svg">
<path fill-rule="evenodd" clip-rule="evenodd" d="M4.66667 9.33333C4.48947 9.33436 4.31915 9.26479 4.19333 9.14L1.47333 6.41333C0.693459 5.63249 0.693459 4.36751 1.47333 3.58667L3.58667 1.47333C4.36751 0.693459 5.63249 0.693459 6.41333 1.47333L9.14 4.19333C9.40141 4.45475 9.40141 4.87859 9.14 5.14C8.87859 5.40142 8.45475 5.40142 8.19333 5.14L5.47333 2.41333C5.34816 2.28713 5.17776 2.21614 5 2.21614C4.82224 2.21614 4.65184 2.28713 4.52667 2.41333L2.41333 4.52667C2.28713 4.65184 2.21614 4.82224 2.21614 5C2.21614 5.17776 2.28713 5.34816 2.41333 5.47333L5.14 8.19333C5.26621 8.31851 5.3372 8.48891 5.3372 8.66667C5.3372 8.84443 5.26621 9.01482 5.14 9.14C5.01419 9.26479 4.84387 9.33436 4.66667 9.33333ZM10.6667 11.3333C10.4895 11.3344 10.3191 11.2648 10.1933 11.14L5.52667 6.47333C5.26525 6.21192 5.26525 5.78808 5.52667 5.52667C5.78808 5.26525 6.21192 5.26525 6.47333 5.52667L11.14 10.1933C11.2662 10.3185 11.3372 10.4889 11.3372 10.6667C11.3372 10.8444 11.2662 11.0148 11.14 11.14C11.0142 11.2648 10.8439 11.3344 10.6667 11.3333ZM9.58667 14.5267C9.96139 14.9019 10.4698 15.1129 11 15.1133C11.5303 15.1129 12.0386 14.9019 12.4133 14.5267L14.5267 12.4133C15.3065 11.6325 15.3065 10.3675 14.5267 9.58667L11.8067 6.86001C11.5453 6.59859 11.1214 6.59859 10.86 6.86001C10.5986 7.12142 10.5986 7.54526 10.86 7.80667L13.5867 10.5267C13.7129 10.6519 13.7839 10.8222 13.7839 11C13.7839 11.1778 13.7129 11.3482 13.5867 11.4733L11.4733 13.5867C11.3482 13.7129 11.1778 13.7839 11 13.7839C10.8222 13.7839 10.6519 13.7129 10.5267 13.5867L7.80667 10.86C7.54526 10.5986 7.12142 10.5986 6.86001 10.86C6.59859 11.1214 6.59859 11.5453 6.86001 11.8067L9.58667 14.5267Z" fill="#5B5B66"/>
</svg>
