<svg width="12" height="12" viewBox="0 0 12 12" fill="none" xmlns="http://www.w3.org/2000/svg">
<path fill="context-fill" fill-opacity="context-fill-opacity" d="M8.16556 0.400024C7.80956 0.400024 7.63036 0.831225 7.88236 1.08322L9.04556 2.24642L6.14556 5.14642C5.95116 5.34162 5.95116 5.65922 6.14556 5.85442C6.24396 5.95122 6.37196 6.00002 6.49996 6.00002C6.62796 6.00002 6.75596 5.95122 6.85356 5.85362L9.75356 2.95362L9.97836 3.17842L10.9168 4.11682C11.1688 4.36882 11.6 4.19042 11.6 3.83442V0.640024L11.36 0.400024H8.16556Z"/>
<path fill="context-fill" fill-opacity="context-fill-opacity" d="M5.4999 1.40002C5.7759 1.40002 5.9999 1.17602 5.9999 0.900024C5.9999 0.624024 5.7759 0.400024 5.4999 0.400024H1.9999C1.1159 0.400024 0.399902 1.11602 0.399902 2.00002V10C0.399902 10.884 1.1159 11.6 1.9999 11.6H9.9999C10.8839 11.6 11.5999 10.884 11.5999 10V6.50002C11.5999 6.22402 11.3759 6.00002 11.0999 6.00002C10.8239 6.00002 10.5999 6.22402 10.5999 6.50002V10.12L10.1199 10.6H1.8799L1.3999 10.12V1.88002L1.8799 1.40002H5.4999Z"/>
</svg>
