<!-- This Source Code Form is subject to the terms of the Mozilla Public
   - License, v. 2.0. If a copy of the MPL was not distributed with this
   - file, You can obtain one at http://mozilla.org/MPL/2.0/. -->
<svg width="40" height="40" viewBox="0 0 40 40" fill="none" xmlns="http://www.w3.org/2000/svg">
<rect width="40" height="40" rx="20" fill="#F9F9FB"/>
<path fill-rule="evenodd" clip-rule="evenodd" d="M17.9998 13.3334C17.2635 13.3334 16.6665 13.9303 16.6665 14.6667H21.9965C23.4705 14.6667 24.6654 15.8606 24.6654 17.3334L24.6654 17.3405L24.6458 24.6649C25.3828 24.6669 25.9819 24.071 25.9838 23.334L25.9998 17.344L25.9998 17.3334C25.9998 15.1242 24.2075 13.3334 21.9965 13.3334H17.9998ZM16.8732 26.6667C15.6549 26.6656 14.6676 25.6783 14.6665 24.46V17.54C14.6676 16.3218 15.6549 15.3345 16.8732 15.3334H21.7932C23.0114 15.3345 23.9987 16.3218 23.9998 17.54V24.46C23.9987 25.6783 23.0114 26.6656 21.7932 26.6667H16.8732ZM16.8732 16.6667C16.391 16.6671 16.0002 17.0579 15.9998 17.54V24.46C16.0002 24.9422 16.391 25.333 16.8732 25.3334H21.7932C22.2753 25.333 22.6661 24.9422 22.6665 24.46V17.54C22.6661 17.0579 22.2753 16.6671 21.7932 16.6667H16.8732Z" fill="#5B5B66"/>
<mask id="mask0" style="mask-type:alpha" maskUnits="userSpaceOnUse" x="14" y="13" width="12" height="14">
<path fill-rule="evenodd" clip-rule="evenodd" d="M17.9998 13.3334C17.2635 13.3334 16.6665 13.9303 16.6665 14.6667H21.9965C23.4705 14.6667 24.6654 15.8606 24.6654 17.3334L24.6654 17.3405L24.6458 24.6649C25.3828 24.6669 25.9819 24.071 25.9838 23.334L25.9998 17.344L25.9998 17.3334C25.9998 15.1242 24.2075 13.3334 21.9965 13.3334H17.9998ZM16.8732 26.6667C15.6549 26.6656 14.6676 25.6783 14.6665 24.46V17.54C14.6676 16.3218 15.6549 15.3345 16.8732 15.3334H21.7932C23.0114 15.3345 23.9987 16.3218 23.9998 17.54V24.46C23.9987 25.6783 23.0114 26.6656 21.7932 26.6667H16.8732ZM16.8732 16.6667C16.391 16.6671 16.0002 17.0579 15.9998 17.54V24.46C16.0002 24.9422 16.391 25.333 16.8732 25.3334H21.7932C22.2753 25.333 22.6661 24.9422 22.6665 24.46V17.54C22.6661 17.0579 22.2753 16.6671 21.7932 16.6667H16.8732Z" fill="white"/>
</mask>
<g mask="url(#mask0)">
</g>
<rect x="0.5" y="0.5" width="39" height="39" rx="19.5" stroke="black" stroke-opacity="0.05"/>
</svg>
