<!-- This Source Code Form is subject to the terms of the Mozilla Public
   - License, v. 2.0. If a copy of the MPL was not distributed with this
   - file, You can obtain one at http://mozilla.org/MPL/2.0/. -->
<svg width="40" height="40" viewBox="0 0 40 40" fill="none" xmlns="http://www.w3.org/2000/svg">
<rect width="40" height="40" rx="20" fill="#F9F9FB"/>
<path fill-rule="evenodd" clip-rule="evenodd" d="M13.1387 12.195L26.472 25.5283C26.732 25.7897 26.732 26.211 26.472 26.4723C26.3413 26.6017 26.1707 26.667 26 26.667C25.8293 26.667 25.6587 26.6017 25.528 26.471L24.8533 25.7963C24.4773 26.095 24.076 26.3643 23.6413 26.591C23.5427 26.6417 23.4373 26.667 23.3333 26.667C23.0947 26.667 22.8613 26.5363 22.7427 26.3097C22.572 25.983 22.6987 25.5803 23.0253 25.4097C23.3373 25.2457 23.6227 25.0497 23.8987 24.8417L21.3333 22.2763V25.3777C21.3333 26.587 19.7613 27.1283 18.968 26.1923L15.9787 22.667H13.3333C12.5973 22.667 12 22.0697 12 21.3337V17.3337C12 16.5977 12.5973 16.0003 13.3333 16.0003H15.0573L12.196 13.1377C11.936 12.8777 11.936 12.455 12.196 12.195C12.456 11.935 12.8787 11.935 13.1387 12.195ZM21.3333 18.5163V13.2897C21.3333 12.0803 19.7613 11.539 18.968 12.475L17.2813 14.4643L21.3333 18.5163ZM24.4347 21.6177C24.7907 20.9337 25 20.1603 25 19.3337C25 17.555 24.0653 16.0043 22.6667 15.1177V19.8497L24.4347 21.6177ZM23.0347 13.2577C25.2747 14.431 26.6667 16.7577 26.6667 19.331C26.6667 20.6123 26.32 21.8323 25.6973 22.879L26.656 23.8377C27.5107 22.527 28 20.975 28 19.331C28 16.2603 26.3347 13.4803 23.6533 12.0763C23.3293 11.911 22.924 12.031 22.752 12.3577C22.5827 12.6843 22.7093 13.0857 23.0347 13.2577Z" fill="#5B5B66"/>
<rect x="0.5" y="0.5" width="39" height="39" rx="19.5" stroke="black" stroke-opacity="0.05"/>
</svg>

