<!-- This Source Code Form is subject to the terms of the Mozilla Public
   - License, v. 2.0. If a copy of the MPL was not distributed with this
   - file, You can obtain one at http://mozilla.org/MPL/2.0/. -->
<svg width="40" height="40" viewBox="0 0 40 40" fill="none" xmlns="http://www.w3.org/2000/svg">
<rect width="40" height="40" rx="20" fill="#F9F9FB"/>
<path d="M27.317 26.4335L23.225 22.3415L25.282 20.2845C25.748 19.8175 25.886 19.1225 25.634 18.5135C25.382 17.9045 24.792 17.5105 24.133 17.5105H22.282L19.107 14.3335C19.086 14.3125 19.058 14.3035 19.035 14.2855L19.754 13.5665C19.998 13.3225 19.998 12.9265 19.754 12.6825C19.51 12.4385 19.114 12.4385 18.87 12.6825L12.683 18.8705C12.439 19.1145 12.439 19.5105 12.683 19.7545C12.927 19.9985 13.323 19.9985 13.567 19.7545L14.286 19.0355C14.303 19.0585 14.312 19.0855 14.333 19.1075L17.51 22.2835V24.1335C17.51 24.7935 17.904 25.3825 18.513 25.6345C18.715 25.7185 18.927 25.7595 19.136 25.7595C19.559 25.7595 19.972 25.5945 20.284 25.2825L22.341 23.2255L26.433 27.3175C26.677 27.5615 27.073 27.5615 27.317 27.3175C27.561 27.0735 27.561 26.6775 27.317 26.4335ZM18.444 15.4405L21.523 18.5185L22.146 18.7605H24.133C24.359 18.7605 24.45 18.9225 24.48 18.9915C24.508 19.0605 24.558 19.2405 24.398 19.3995L19.4 24.3975C19.238 24.5595 19.059 24.5065 18.992 24.4795C18.923 24.4505 18.761 24.3595 18.761 24.1325V22.1405L18.511 21.5155L15.44 18.4445V17.8775L17.95 15.3685L18.444 15.4405Z" fill="#5B5B66"/>
<rect x="0.5" y="0.5" width="39" height="39" rx="19.5" stroke="black" stroke-opacity="0.05"/>
</svg>
